<svg xmlns="http://www.w3.org/2000/svg" xmlns:xlink="http://www.w3.org/1999/xlink" width="1200" zoomAndPan="magnify" viewBox="0 0 900 599.999999" height="800" preserveAspectRatio="xMidYMid meet" version="1.0"><defs><clipPath id="81bb728244"><path d="M 608.863281 363.554688 L 894.613281 363.554688 L 894.613281 596 L 608.863281 596 Z M 608.863281 363.554688 " clip-rule="nonzero"/></clipPath><clipPath id="3138f0689f"><path d="M 133 215.097656 L 237 215.097656 L 237 361 L 133 361 Z M 133 215.097656 " clip-rule="nonzero"/></clipPath><clipPath id="cfb115e47a"><path d="M 194 234 L 304 234 L 304 384.597656 L 194 384.597656 Z M 194 234 " clip-rule="nonzero"/></clipPath></defs><rect x="-90" width="1080" fill="#ffffff" y="-60" height="719.999999" fill-opacity="1"/><rect x="-90" width="1080" fill="#ff3131" y="-60" height="719.999999" fill-opacity="1"/><g clip-path="url(#81bb728244)"><path fill="#f62d2d" d="M 801.957031 363.554688 C 801.621094 363.554688 801.3125 363.640625 801.023438 363.808594 C 800.734375 363.972656 800.503906 364.203125 800.335938 364.492188 L 781.726562 396.730469 C 781.558594 397.019531 781.476562 397.332031 781.476562 397.664062 C 781.476562 398 781.558594 398.3125 781.726562 398.601562 L 800.335938 430.835938 C 800.503906 431.125 800.734375 431.355469 801.023438 431.519531 C 801.3125 431.6875 801.621094 431.773438 801.957031 431.773438 L 839.183594 431.773438 C 839.515625 431.773438 839.828125 431.6875 840.117188 431.519531 C 840.40625 431.355469 840.632812 431.125 840.800781 430.835938 L 859.414062 398.601562 C 859.582031 398.3125 859.664062 398 859.664062 397.664062 C 859.664062 397.332031 859.582031 397.019531 859.414062 396.730469 L 840.800781 364.492188 C 840.632812 364.203125 840.40625 363.972656 840.117188 363.808594 C 839.828125 363.640625 839.515625 363.554688 839.183594 363.554688 Z M 803.039062 367.296875 L 838.101562 367.296875 L 855.632812 397.664062 L 838.101562 428.03125 L 803.039062 428.03125 L 785.507812 397.664062 Z M 732.59375 380.25 L 721.636719 399.230469 L 732.59375 418.214844 L 754.511719 418.214844 L 765.46875 399.230469 L 754.511719 380.25 Z M 651.230469 410.824219 C 650.894531 410.824219 650.582031 410.90625 650.292969 411.074219 C 650.003906 411.238281 649.777344 411.46875 649.609375 411.757812 L 619.835938 463.324219 C 619.667969 463.613281 619.585938 463.925781 619.585938 464.261719 C 619.585938 464.59375 619.667969 464.90625 619.835938 465.195312 L 649.609375 516.765625 C 649.777344 517.054688 650.003906 517.28125 650.292969 517.449219 C 650.582031 517.617188 650.894531 517.699219 651.230469 517.699219 L 710.777344 517.699219 C 711.109375 517.699219 711.421875 517.617188 711.710938 517.449219 C 712 517.28125 712.226562 517.054688 712.394531 516.765625 L 742.171875 465.195312 C 742.335938 464.90625 742.421875 464.59375 742.421875 464.261719 C 742.421875 463.925781 742.335938 463.613281 742.171875 463.324219 L 712.394531 411.757812 C 712.226562 411.46875 712 411.242188 711.710938 411.074219 C 711.421875 410.90625 711.109375 410.824219 710.777344 410.824219 Z M 652.308594 414.5625 L 709.695312 414.5625 L 738.390625 464.261719 L 709.695312 513.957031 L 652.308594 513.957031 L 623.617188 464.261719 Z M 762.503906 427.019531 C 762.171875 427.019531 761.859375 427.101562 761.570312 427.269531 C 761.28125 427.4375 761.054688 427.664062 760.886719 427.953125 L 750.519531 445.910156 C 750.351562 446.199219 750.269531 446.511719 750.269531 446.84375 C 750.269531 447.179688 750.351562 447.492188 750.519531 447.78125 L 760.886719 465.734375 C 761.054688 466.023438 761.28125 466.25 761.570312 466.417969 C 761.859375 466.585938 762.171875 466.667969 762.503906 466.667969 L 783.238281 466.667969 C 783.574219 466.667969 783.882812 466.585938 784.175781 466.417969 C 784.464844 466.25 784.691406 466.023438 784.859375 465.734375 L 795.222656 447.78125 C 795.390625 447.492188 795.472656 447.179688 795.472656 446.84375 C 795.472656 446.511719 795.390625 446.199219 795.222656 445.910156 L 784.859375 427.953125 C 784.691406 427.664062 784.464844 427.4375 784.175781 427.269531 C 783.882812 427.101562 783.574219 427.019531 783.238281 427.019531 Z M 763.589844 430.761719 L 782.160156 430.761719 L 791.445312 446.84375 L 782.160156 462.925781 L 763.589844 462.925781 L 754.300781 446.84375 Z M 819.554688 443.042969 C 819.222656 443.042969 818.910156 443.125 818.621094 443.292969 C 818.332031 443.457031 818.105469 443.6875 817.9375 443.972656 L 802.40625 470.878906 C 802.238281 471.167969 802.15625 471.480469 802.15625 471.8125 C 802.15625 472.148438 802.238281 472.460938 802.40625 472.75 L 817.9375 499.652344 C 818.105469 499.941406 818.332031 500.167969 818.621094 500.335938 C 818.910156 500.5 819.222656 500.585938 819.554688 500.585938 L 850.621094 500.585938 C 850.957031 500.585938 851.269531 500.503906 851.558594 500.335938 C 851.847656 500.167969 852.074219 499.941406 852.242188 499.652344 L 867.773438 472.75 C 867.9375 472.460938 868.023438 472.148438 868.023438 471.8125 C 868.023438 471.480469 867.9375 471.167969 867.773438 470.878906 L 852.242188 443.972656 C 852.074219 443.6875 851.847656 443.457031 851.558594 443.292969 C 851.269531 443.125 850.957031 443.042969 850.621094 443.042969 Z M 820.636719 446.78125 L 849.542969 446.78125 L 863.992188 471.8125 L 849.542969 496.84375 L 820.636719 496.84375 L 806.1875 471.8125 Z M 749.679688 479.921875 C 749.34375 479.921875 749.035156 480.007812 748.746094 480.175781 C 748.453125 480.339844 748.226562 480.570312 748.058594 480.859375 L 726.921875 517.472656 C 726.753906 517.761719 726.671875 518.074219 726.671875 518.410156 C 726.671875 518.742188 726.753906 519.054688 726.921875 519.34375 L 748.058594 555.960938 C 748.226562 556.25 748.457031 556.480469 748.746094 556.644531 C 749.035156 556.8125 749.347656 556.894531 749.679688 556.894531 L 791.960938 556.894531 C 792.292969 556.894531 792.605469 556.8125 792.894531 556.644531 C 793.183594 556.480469 793.414062 556.25 793.582031 555.960938 L 814.71875 519.34375 C 814.886719 519.054688 814.96875 518.742188 814.96875 518.410156 C 814.96875 518.074219 814.886719 517.761719 814.71875 517.472656 L 793.582031 480.859375 C 793.414062 480.570312 793.1875 480.339844 792.894531 480.175781 C 792.605469 480.007812 792.292969 479.921875 791.960938 479.921875 Z M 750.761719 483.664062 L 790.878906 483.664062 L 810.9375 518.410156 L 790.878906 553.152344 L 750.761719 553.152344 L 730.699219 518.410156 Z M 867.414062 492.824219 L 858.398438 508.4375 L 867.414062 524.050781 L 885.441406 524.050781 L 894.457031 508.4375 L 885.441406 492.824219 Z M 829.226562 516.765625 C 828.894531 516.765625 828.582031 516.847656 828.292969 517.015625 C 828.003906 517.183594 827.773438 517.410156 827.605469 517.699219 L 817.242188 535.652344 C 817.074219 535.941406 816.992188 536.253906 816.988281 536.589844 C 816.992188 536.921875 817.074219 537.234375 817.242188 537.523438 L 827.605469 555.476562 C 827.773438 555.765625 828 555.996094 828.292969 556.164062 C 828.582031 556.332031 828.894531 556.414062 829.226562 556.414062 L 849.960938 556.414062 C 850.292969 556.414062 850.605469 556.332031 850.898438 556.164062 C 851.1875 555.996094 851.414062 555.765625 851.582031 555.476562 L 861.945312 537.523438 C 862.113281 537.234375 862.195312 536.921875 862.195312 536.589844 C 862.195312 536.253906 862.113281 535.941406 861.945312 535.652344 L 851.582031 517.699219 C 851.414062 517.410156 851.1875 517.183594 850.894531 517.015625 C 850.605469 516.847656 850.292969 516.765625 849.960938 516.765625 Z M 830.308594 520.503906 L 848.882812 520.503906 L 858.167969 536.589844 L 848.882812 552.671875 L 830.308594 552.671875 L 821.019531 536.589844 Z M 619.851562 525.117188 L 608.894531 544.097656 L 619.851562 563.082031 L 641.769531 563.082031 L 652.726562 544.097656 L 641.769531 525.117188 Z M 684.070312 526.433594 C 683.734375 526.433594 683.425781 526.515625 683.132812 526.683594 C 682.84375 526.851562 682.617188 527.078125 682.449219 527.367188 L 666.84375 554.398438 C 666.675781 554.691406 666.59375 555 666.59375 555.335938 C 666.59375 555.671875 666.675781 555.980469 666.84375 556.269531 L 682.449219 583.304688 C 682.617188 583.59375 682.84375 583.820312 683.132812 583.988281 C 683.425781 584.152344 683.734375 584.238281 684.070312 584.238281 L 715.285156 584.238281 C 715.617188 584.238281 715.929688 584.152344 716.21875 583.988281 C 716.507812 583.820312 716.734375 583.59375 716.902344 583.304688 L 732.511719 556.269531 C 732.679688 555.980469 732.765625 555.671875 732.765625 555.335938 C 732.765625 555 732.679688 554.691406 732.511719 554.398438 L 716.902344 527.367188 C 716.734375 527.078125 716.507812 526.851562 716.21875 526.683594 C 715.929688 526.519531 715.617188 526.433594 715.285156 526.433594 Z M 685.148438 530.171875 L 714.203125 530.171875 L 728.730469 555.335938 L 714.203125 580.5 L 685.148438 580.5 L 670.625 555.335938 Z M 739.539062 564.765625 L 730.523438 580.382812 L 739.539062 595.996094 L 757.566406 595.996094 L 766.582031 580.382812 L 757.566406 564.765625 Z M 739.539062 564.765625 " fill-opacity="1" fill-rule="nonzero"/></g><path fill="#af2121" d="M 498.085938 314.824219 L 512.03125 296.476562 L 498.179688 296.476562 L 490.414062 307.214844 L 479.207031 296.203125 C 480.90625 295.429688 482.609375 294.5 484.273438 293.386719 C 485.9375 292.289062 487.429688 291.058594 488.738281 289.722656 C 490.058594 288.375 491.09375 286.894531 491.878906 285.242188 C 492.667969 283.605469 493.070312 281.800781 493.070312 279.835938 C 493.070312 277.269531 492.535156 275.03125 491.449219 273.117188 C 490.363281 271.207031 488.921875 269.636719 487.128906 268.417969 C 485.320312 267.199219 483.238281 266.28125 480.882812 265.695312 C 478.523438 265.089844 476.035156 264.789062 473.417969 264.789062 C 470.796875 264.789062 468.273438 265.128906 465.847656 265.785156 C 463.425781 266.441406 461.292969 267.410156 459.460938 268.679688 C 457.625 269.976562 456.160156 271.597656 455.085938 273.5625 C 454.011719 275.527344 453.460938 277.804688 453.460938 280.359375 C 453.460938 281.917969 453.671875 283.34375 454.105469 284.667969 C 454.535156 285.976562 455.097656 287.207031 455.832031 288.332031 C 456.550781 289.460938 457.378906 290.574219 458.332031 291.648438 C 459.277344 292.71875 460.308594 293.820312 461.421875 294.960938 C 459.328125 295.667969 457.363281 296.609375 455.53125 297.773438 C 453.699219 298.941406 452.101562 300.277344 450.765625 301.792969 C 449.414062 303.328125 448.355469 305.003906 447.570312 306.808594 C 446.785156 308.644531 446.390625 310.621094 446.390625 312.769531 C 446.390625 315.804688 447.046875 318.476562 448.355469 320.78125 C 449.664062 323.074219 451.40625 325.011719 453.554688 326.582031 C 455.726562 328.167969 458.226562 329.371094 461.082031 330.167969 C 463.9375 330.980469 466.898438 331.375 469.972656 331.375 C 474.425781 331.375 478.261719 330.667969 481.46875 329.226562 C 484.679688 327.8125 487.691406 325.5625 490.519531 322.523438 L 497.878906 329.777344 L 513.121094 329.777344 Z M 467.695312 276.207031 C 469.332031 275.042969 471.308594 274.453125 473.601562 274.453125 C 475.695312 274.453125 477.488281 275.015625 479.007812 276.117188 C 480.515625 277.21875 481.261719 278.632812 481.261719 280.359375 C 481.261719 281.5625 480.972656 282.636719 480.371094 283.582031 C 479.78125 284.550781 479.023438 285.425781 478.066406 286.226562 C 477.125 287.039062 476.089844 287.757812 474.976562 288.375 C 473.863281 289 472.816406 289.550781 471.832031 290.035156 C 471.046875 289.382812 470.261719 288.6875 469.515625 287.980469 C 468.769531 287.261719 468.0625 286.5 467.40625 285.6875 C 466.753906 284.890625 466.230469 284.078125 465.835938 283.28125 C 465.441406 282.46875 465.246094 281.65625 465.246094 280.816406 C 465.246094 278.90625 466.058594 277.375 467.695312 276.207031 Z M 477.4375 319.746094 C 475.421875 321.054688 473.050781 321.710938 470.367188 321.710938 C 468.859375 321.710938 467.445312 321.476562 466.136719 321.003906 C 464.828125 320.519531 463.675781 319.863281 462.652344 319.027344 C 461.632812 318.1875 460.835938 317.179688 460.246094 315.988281 C 459.65625 314.796875 459.367188 313.515625 459.367188 312.140625 C 459.367188 310.765625 459.640625 309.546875 460.191406 308.472656 C 460.753906 307.398438 461.488281 306.441406 462.40625 305.605469 C 463.320312 304.765625 464.34375 304.007812 465.457031 303.328125 C 466.570312 302.632812 467.707031 301.964844 468.898438 301.308594 L 483.148438 315.453125 C 481.378906 316.996094 479.46875 318.4375 477.4375 319.746094 Z M 477.4375 319.746094 " fill-opacity="1" fill-rule="nonzero"/><path fill="#af2121" d="M 410.160156 227.601562 L 410.160156 270.121094 L 356.578125 270.121094 L 356.578125 227.601562 L 336.84375 227.601562 L 336.84375 329.867188 L 356.578125 329.867188 L 356.578125 286.777344 L 410.160156 286.777344 L 410.160156 329.867188 L 429.890625 329.867188 L 429.890625 227.601562 Z M 410.160156 227.601562 " fill-opacity="1" fill-rule="nonzero"/><path fill="#af2121" d="M 619.234375 227.601562 L 585.070312 275.960938 L 550.894531 227.601562 L 529.894531 227.601562 L 529.894531 329.867188 L 549.285156 329.867188 L 549.285156 256.816406 L 584.429688 304.742188 L 585.070312 304.742188 L 620.519531 256.527344 L 620.519531 329.867188 L 640.25 329.867188 L 640.25 227.601562 Z M 619.234375 227.601562 " fill-opacity="1" fill-rule="nonzero"/><path fill="#af2121" d="M 745.214844 227.601562 L 711.535156 306.195312 L 677.6875 227.601562 L 655.871094 227.601562 L 702.554688 330.589844 L 719.878906 330.589844 L 766.558594 227.601562 Z M 745.214844 227.601562 " fill-opacity="1" fill-rule="nonzero"/><path fill="#af2121" d="M 410.183594 227.628906 L 410.183594 270.144531 L 356.605469 270.144531 L 356.605469 227.628906 L 336.871094 227.628906 L 336.871094 329.882812 L 356.605469 329.882812 L 356.605469 286.800781 L 410.1875 286.800781 L 410.1875 329.882812 L 429.917969 329.882812 L 429.917969 227.628906 Z M 410.183594 227.628906 " fill-opacity="1" fill-rule="nonzero"/><path fill="#af2121" d="M 619.234375 227.601562 L 585.070312 275.960938 L 550.894531 227.601562 L 529.894531 227.601562 L 529.894531 329.867188 L 549.285156 329.867188 L 549.285156 256.816406 L 584.429688 304.742188 L 585.070312 304.742188 L 620.519531 256.527344 L 620.519531 329.867188 L 640.25 329.867188 L 640.25 227.601562 Z M 619.234375 227.601562 " fill-opacity="1" fill-rule="nonzero"/><path fill="#af2121" d="M 745.214844 227.601562 L 711.535156 306.195312 L 677.6875 227.601562 L 655.871094 227.601562 L 702.554688 330.589844 L 719.878906 330.589844 L 766.558594 227.601562 Z M 745.214844 227.601562 " fill-opacity="1" fill-rule="nonzero"/><path fill="#af2121" d="M 340.261719 375.421875 L 340.261719 366.007812 L 354.929688 366.007812 L 354.929688 363.246094 L 340.261719 363.246094 L 340.261719 354.066406 L 356.65625 354.066406 L 356.65625 351.304688 L 337.238281 351.304688 L 337.238281 378.1875 L 356.851562 378.1875 L 356.851562 375.421875 Z M 340.261719 375.421875 " fill-opacity="1" fill-rule="nonzero"/><path fill="#af2121" d="M 398.097656 351.304688 L 398.097656 372.84375 L 381.167969 351.304688 L 378.328125 351.304688 L 378.328125 378.1875 L 381.285156 378.1875 L 381.285156 356.136719 L 398.636719 378.1875 L 401.058594 378.1875 L 401.058594 351.304688 Z M 398.097656 351.304688 " fill-opacity="1" fill-rule="nonzero"/><path fill="#af2121" d="M 436.203125 363.820312 L 436.203125 366.558594 L 444.386719 366.558594 L 444.386719 373.238281 C 442.542969 374.730469 439.699219 375.921875 436.621094 375.921875 C 430.089844 375.921875 425.992188 371.15625 425.992188 364.738281 L 425.992188 364.671875 C 425.992188 358.675781 430.246094 353.648438 436.203125 353.648438 C 440 353.648438 442.304688 354.917969 444.386719 356.726562 L 446.339844 354.421875 C 443.65625 352.140625 440.851562 350.84375 436.320312 350.84375 C 428.253906 350.84375 422.835938 357.378906 422.835938 364.738281 L 422.835938 364.816406 C 422.835938 372.503906 428.058594 378.644531 436.503906 378.644531 C 441.035156 378.644531 444.808594 376.773438 447.292969 374.53125 L 447.292969 363.820312 Z M 436.203125 363.820312 " fill-opacity="1" fill-rule="nonzero"/><path fill="#af2121" d="M 469.765625 351.304688 L 469.765625 378.1875 L 472.789062 378.1875 L 472.789062 351.304688 Z M 469.765625 351.304688 " fill-opacity="1" fill-rule="nonzero"/><path fill="#af2121" d="M 515.816406 351.304688 L 515.816406 372.84375 L 498.886719 351.304688 L 496.042969 351.304688 L 496.042969 378.1875 L 499.003906 378.1875 L 499.003906 356.136719 L 516.367188 378.1875 L 518.777344 378.1875 L 518.777344 351.304688 Z M 515.816406 351.304688 " fill-opacity="1" fill-rule="nonzero"/><path fill="#af2121" d="M 544.78125 375.421875 L 544.78125 366.007812 L 559.445312 366.007812 L 559.445312 363.246094 L 544.78125 363.246094 L 544.78125 354.066406 L 561.175781 354.066406 L 561.175781 351.304688 L 541.742188 351.304688 L 541.742188 378.1875 L 561.371094 378.1875 L 561.371094 375.421875 Z M 544.78125 375.421875 " fill-opacity="1" fill-rule="nonzero"/><path fill="#af2121" d="M 585.871094 375.421875 L 585.871094 366.007812 L 600.535156 366.007812 L 600.535156 363.246094 L 585.871094 363.246094 L 585.871094 354.066406 L 602.265625 354.066406 L 602.265625 351.304688 L 582.847656 351.304688 L 582.847656 378.1875 L 602.460938 378.1875 L 602.460938 375.421875 Z M 585.871094 375.421875 " fill-opacity="1" fill-rule="nonzero"/><path fill="#af2121" d="M 637.921875 367.199219 C 642.136719 366.441406 645.199219 363.820312 645.199219 359.371094 L 645.199219 359.292969 C 645.199219 357.183594 644.441406 355.296875 643.144531 353.988281 C 641.441406 352.3125 638.796875 351.304688 635.496094 351.304688 L 623.9375 351.304688 L 623.9375 378.1875 L 626.960938 378.1875 L 626.960938 367.738281 L 634.648438 367.738281 L 642.4375 378.1875 L 646.167969 378.1875 Z M 626.949219 365.011719 L 626.949219 354.105469 L 635.25 354.105469 C 639.597656 354.105469 642.125 356.097656 642.125 359.410156 L 642.125 359.488281 C 642.125 362.945312 639.242188 365.011719 635.210938 365.011719 Z M 626.949219 365.011719 " fill-opacity="1" fill-rule="nonzero"/><path fill="#af2121" d="M 667.332031 351.304688 L 667.332031 378.1875 L 670.367188 378.1875 L 670.367188 351.304688 Z M 667.332031 351.304688 " fill-opacity="1" fill-rule="nonzero"/><path fill="#af2121" d="M 713.371094 351.304688 L 713.371094 372.84375 L 696.4375 351.304688 L 693.597656 351.304688 L 693.597656 378.1875 L 696.542969 378.1875 L 696.542969 356.136719 L 713.90625 378.1875 L 716.316406 378.1875 L 716.316406 351.304688 Z M 713.371094 351.304688 " fill-opacity="1" fill-rule="nonzero"/><path fill="#af2121" d="M 747.636719 363.820312 L 747.636719 366.558594 L 755.820312 366.558594 L 755.820312 373.238281 C 753.976562 374.730469 751.132812 375.921875 748.054688 375.921875 C 741.535156 375.921875 737.421875 371.15625 737.421875 364.738281 L 737.421875 364.671875 C 737.421875 358.675781 741.679688 353.648438 747.636719 353.648438 C 751.433594 353.648438 753.738281 354.917969 755.820312 356.726562 L 757.773438 354.421875 C 755.085938 352.140625 752.285156 350.84375 747.753906 350.84375 C 739.6875 350.84375 734.28125 357.378906 734.28125 364.738281 L 734.28125 364.816406 C 734.28125 372.503906 739.492188 378.644531 747.9375 378.644531 C 752.480469 378.644531 756.238281 376.773438 758.742188 374.53125 L 758.742188 363.820312 Z M 747.636719 363.820312 " fill-opacity="1" fill-rule="nonzero"/><path fill="#af2121" d="M 498.085938 314.824219 L 512.03125 296.476562 L 498.179688 296.476562 L 490.414062 307.214844 L 479.207031 296.203125 C 480.90625 295.429688 482.609375 294.5 484.273438 293.386719 C 485.9375 292.289062 487.429688 291.058594 488.738281 289.722656 C 490.058594 288.375 491.09375 286.894531 491.878906 285.242188 C 492.667969 283.605469 493.070312 281.800781 493.070312 279.835938 C 493.070312 277.269531 492.535156 275.03125 491.449219 273.117188 C 490.363281 271.207031 488.921875 269.636719 487.128906 268.417969 C 485.320312 267.199219 483.238281 266.28125 480.882812 265.695312 C 478.523438 265.089844 476.035156 264.789062 473.417969 264.789062 C 470.796875 264.789062 468.273438 265.128906 465.847656 265.785156 C 463.425781 266.441406 461.292969 267.410156 459.460938 268.679688 C 457.625 269.976562 456.160156 271.597656 455.085938 273.5625 C 454.011719 275.527344 453.460938 277.804688 453.460938 280.359375 C 453.460938 281.917969 453.671875 283.34375 454.105469 284.667969 C 454.535156 285.976562 455.097656 287.207031 455.832031 288.332031 C 456.550781 289.460938 457.378906 290.574219 458.332031 291.648438 C 459.277344 292.71875 460.308594 293.820312 461.421875 294.960938 C 459.328125 295.667969 457.363281 296.609375 455.53125 297.773438 C 453.699219 298.941406 452.101562 300.277344 450.765625 301.792969 C 449.414062 303.328125 448.355469 305.003906 447.570312 306.808594 C 446.785156 308.644531 446.390625 310.621094 446.390625 312.769531 C 446.390625 315.804688 447.046875 318.476562 448.355469 320.78125 C 449.664062 323.074219 451.40625 325.011719 453.554688 326.582031 C 455.726562 328.167969 458.226562 329.371094 461.082031 330.167969 C 463.9375 330.980469 466.898438 331.375 469.972656 331.375 C 474.425781 331.375 478.261719 330.667969 481.46875 329.226562 C 484.679688 327.8125 487.691406 325.5625 490.519531 322.523438 L 497.878906 329.777344 L 513.121094 329.777344 Z M 467.695312 276.207031 C 469.332031 275.042969 471.308594 274.453125 473.601562 274.453125 C 475.695312 274.453125 477.488281 275.015625 479.007812 276.117188 C 480.515625 277.21875 481.261719 278.632812 481.261719 280.359375 C 481.261719 281.5625 480.972656 282.636719 480.371094 283.582031 C 479.78125 284.550781 479.023438 285.425781 478.066406 286.226562 C 477.125 287.039062 476.089844 287.757812 474.976562 288.375 C 473.863281 289 472.816406 289.550781 471.832031 290.035156 C 471.046875 289.382812 470.261719 288.6875 469.515625 287.980469 C 468.769531 287.261719 468.0625 286.5 467.40625 285.6875 C 466.753906 284.890625 466.230469 284.078125 465.835938 283.28125 C 465.441406 282.46875 465.246094 281.65625 465.246094 280.816406 C 465.246094 278.90625 466.058594 277.375 467.695312 276.207031 Z M 477.4375 319.746094 C 475.421875 321.054688 473.050781 321.710938 470.367188 321.710938 C 468.859375 321.710938 467.445312 321.476562 466.136719 321.003906 C 464.828125 320.519531 463.675781 319.863281 462.652344 319.027344 C 461.632812 318.1875 460.835938 317.179688 460.246094 315.988281 C 459.65625 314.796875 459.367188 313.515625 459.367188 312.140625 C 459.367188 310.765625 459.640625 309.546875 460.191406 308.472656 C 460.753906 307.398438 461.488281 306.441406 462.40625 305.605469 C 463.320312 304.765625 464.34375 304.007812 465.457031 303.328125 C 466.570312 302.632812 467.707031 301.964844 468.898438 301.308594 L 483.148438 315.453125 C 481.378906 316.996094 479.46875 318.4375 477.4375 319.746094 Z M 477.4375 319.746094 " fill-opacity="1" fill-rule="nonzero"/><g clip-path="url(#3138f0689f)"><path fill="#af2121" d="M 158.894531 360.601562 L 202.355469 303.066406 L 173.191406 303.027344 L 236.464844 217.046875 C 230.625 215.777344 224.5625 215.097656 218.328125 215.097656 C 171.453125 215.097656 133.4375 253.109375 133.4375 299.988281 C 133.4375 323.726562 143.195312 345.1875 158.894531 360.601562 Z M 158.894531 360.601562 " fill-opacity="1" fill-rule="nonzero"/><path fill="#af2121" d="M 158.894531 360.601562 L 202.355469 303.066406 L 173.191406 303.027344 L 236.464844 217.046875 C 230.625 215.777344 224.5625 215.097656 218.328125 215.097656 C 171.453125 215.097656 133.4375 253.109375 133.4375 299.988281 C 133.4375 323.726562 143.195312 345.1875 158.894531 360.601562 Z M 158.894531 360.601562 " fill-opacity="1" fill-rule="nonzero"/></g><g clip-path="url(#cfb115e47a)"><path fill="#af2121" d="M 271.882812 234.125 L 223.683594 301.753906 L 251.222656 301.285156 L 194.144531 381.382812 C 201.816406 383.660156 209.933594 384.878906 218.34375 384.878906 C 265.21875 384.878906 303.230469 346.863281 303.230469 299.988281 C 303.230469 273.40625 291.015625 249.691406 271.898438 234.125 Z M 271.882812 234.125 " fill-opacity="1" fill-rule="nonzero"/><path fill="#af2121" d="M 271.882812 234.125 L 223.683594 301.753906 L 251.222656 301.285156 L 194.144531 381.382812 C 201.816406 383.660156 209.933594 384.878906 218.34375 384.878906 C 265.21875 384.878906 303.230469 346.863281 303.230469 299.988281 C 303.230469 273.40625 291.015625 249.691406 271.898438 234.125 Z M 271.882812 234.125 " fill-opacity="1" fill-rule="nonzero"/></g></svg>